HIERARCHY
ROOT Hips
{
	OFFSET 0.000000 0.000000 0.000000 
	CHANNELS 6 Xposition Yposition Zposition Yrotation Zrotation Xrotation 
	JOINT Lumbar
	{
		OFFSET 0.000000 0.000000 0.000000 
		CHANNELS 3 Zrotation Xrotation Yrotation
		JOINT Neck
		{
			OFFSET 0.000000 0.445665 0.000000 
			CHANNELS 3 Zrotation Xrotation Yrotation
			End Site
			{
				OFFSET 0.000000 0.227535 0.000000 
			}
		}
		JOINT RightShoulder
		{
			OFFSET 0.019635 0.377685 0.194865 
			CHANNELS 3 Zrotation Xrotation Yrotation
			JOINT RightElbow
			{
				OFFSET 0.000000 -0.243375 0.000000 
				CHANNELS 2 Zrotation Yrotation
				JOINT RightWrist
				{
					OFFSET 0.000000 -0.264825 0.000000 
					CHANNELS 2 Zrotation Xrotation
					End Site
					{
						OFFSET 0.006600 -0.176220 0.000990 
					}
				}
			}
		}
		JOINT LeftShoulder
		{
			OFFSET 0.019635 0.377685 -0.194865 
			CHANNELS 3 Zrotation Xrotation Yrotation
			JOINT LeftElbow
			{
				OFFSET 0.000000 -0.243375 0.000000 
				CHANNELS 2 Zrotation Yrotation
				JOINT LeftWrist
				{
					OFFSET 0.000000 -0.264825 0.000000 
					CHANNELS 2 Zrotation Xrotation
					End Site
					{
						OFFSET 0.006600 -0.176220 -0.000990 
					}
				}
			}
		}
	}
	JOINT RightHip
	{
		OFFSET 0.052140 -0.069960 0.075570 
		CHANNELS 3 Zrotation Xrotation Yrotation
		JOINT RightKnee
		{
			OFFSET 0.000000 -0.402270 0.000000 
			CHANNELS 1 Zrotation
			JOINT RightAnkle
			{
				OFFSET 0.000000 -0.404085 0.000000 
				CHANNELS 3 Zrotation Xrotation Yrotation
				End Site
				{
					OFFSET 0.204105 -0.089430 0.008415 
				}
			}
		}
	}
	JOINT LeftHip
	{
		OFFSET 0.052140 -0.069960 -0.075570 
		CHANNELS 3 Zrotation Xrotation Yrotation
		JOINT LeftKnee
		{
			OFFSET 0.000000 -0.402270 0.000000 
			CHANNELS 1 Zrotation
			JOINT LeftAnkle
			{
				OFFSET 0.000000 -0.404085 0.000000 
				CHANNELS 3 Zrotation Xrotation Yrotation
				End Site
				{
					OFFSET 0.204105 -0.089430 -0.008415 
				}
			}
		}
	}
}
MOTION
Frames: 11
Frame Time: 0.02
-0.00054 0.00012 -0.00015 -171.9098 -29.42728 1.51059 43.72269 -0.90657 -6.37117 -10.5602 3.72794 -1.03595 -19.5795 -5.52892 -4.21254 26.02016 95.42799 8.19622 1.60279 -23.36212 6.24805 3.13185 31.19272 -104.03384 15.2876 -1.96173 29.00051 -3.12999 -11.46252 -20.29716 -6.40451 -3.45183 -3.89045 34.86038 6.694 7.32002 -24.4346 -6.59735 2.22912 3.31567
-0.00058 0.00013 -0.00013 -171.92949 -29.41747 1.50914 43.74711 -0.90978 -6.38774 -10.52166 3.71056 -1.03695 -19.58994 -5.52107 -4.23267 26.05871 95.31097 8.14414 1.61086 -23.36658 6.35319 2.91969 31.28068 -104.05996 15.28955 -1.96179 28.98493 -3.13447 -11.4662 -20.29571 -6.40441 -3.44939 -3.88979 34.84169 6.67816 7.24887 -24.43485 -6.59853 2.23463 3.31917
-0.00063 0.00014 -0.00012 -171.94914 -29.40769 1.50769 43.77147 -0.91296 -6.4043 -10.48323 3.69321 -1.03794 -19.60049 -5.51331 -4.25252 26.09751 95.19472 8.09238 1.61896 -23.37135 6.45821 2.70793 31.36881 -104.0862 15.29163 -1.96188 28.96942 -3.13894 -11.46993 -20.29427 -6.40429 -3.44694 -3.88911 34.82307 6.66238 7.17798 -24.4351 -6.59972 2.24012 3.32266
-0.00068 0.00015 -0.00011 -171.96877 -29.39792 1.50625 43.79582 -0.91615 -6.42083 -10.4448 3.67588 -1.03893 -19.61093 -5.50552 -4.27249 26.13601 95.0778 8.04039 1.62696 -23.37585 6.56307 2.49637 31.45659 -104.11207 15.29353 -1.96192 28.95389 -3.14341 -11.47361 -20.29283 -6.40419 -3.44451 -3.88845 34.80444 6.64659 7.10705 -24.43534 -6.6009 2.24562 3.32616
-0.00073 0.00016 -9e-05 -171.98842 -29.38811 1.50481 43.82021 -0.91936 -6.43735 -10.40629 3.65852 -1.03992 -19.62121 -5.49757 -4.29298 26.17412 94.96088 7.98827 1.63506 -23.3799 6.66794 2.28454 31.54398 -104.1383 15.29542 -1.96201 28.93828 -3.14787 -11.47722 -20.29139 -6.40409 -3.44208 -3.88779 34.78572 6.63075 7.03585 -24.43558 -6.60208 2.25112 3.32966
-0.00078 0.00017 -8e-05 -172.00806 -29.3784 1.50334 43.8445 -0.9225 -6.45402 -10.36803 3.64119 -1.04091 -19.63233 -5.49018 -4.31158 26.21435 94.84654 7.9374 1.64323 -23.38618 6.77324 2.07299 31.63365 -104.16485 15.29802 -1.96217 28.92296 -3.15237 -11.48117 -20.28998 -6.40396 -3.4396 -3.8871 34.76731 6.61511 6.96563 -24.43586 -6.60328 2.25661 3.33314
-0.00082 0.00019 -7e-05 -172.02771 -29.36851 1.50193 43.86898 -0.92578 -6.47037 -10.32927 3.62382 -1.0419 -19.64175 -5.48179 -4.33353 26.25031 94.72475 7.88344 1.65085 -23.388 6.87763 1.86097 31.71873 -104.18928 15.29871 -1.96195 28.90709 -3.15679 -11.48445 -20.28849 -6.40389 -3.43722 -3.88646 34.74833 6.59906 6.89348 -24.43606 -6.60443 2.26211 3.33666
-0.00087 0.0002 -5e-05 -172.04736 -29.35875 1.50047 43.89326 -0.92893 -6.48698 -10.29102 3.60648 -1.04289 -19.65272 -5.47413 -4.35315 26.29014 94.6142 7.83346 1.65971 -23.39386 6.98276 1.64962 31.80786 -104.2183 15.30202 -1.96248 28.89169 -3.16129 -11.48833 -20.28708 -6.40377 -3.43475 -3.88578 34.72983 6.58341 6.8232 -24.43634 -6.60563 2.2676 3.34014
-0.00092 0.00021 -4e-05 -172.06699 -29.34932 1.49895 43.9174 -0.93192 -6.50408 -10.2532 3.58919 -1.04388 -19.66571 -5.46811 -4.36691 26.33503 94.50005 7.78389 1.6672 -23.40501 7.08924 1.43801 31.90279 -104.24251 15.30516 -1.96236 28.87702 -3.16589 -11.49304 -20.28573 -6.40355 -3.43215 -3.88502 34.71209 6.56819 6.7548 -24.43669 -6.6069 2.27313 3.34359
-0.00098 0.00022 -3e-05 -172.08666 -29.33849 1.49775 43.94267 -0.93582 -6.51887 -10.21231 3.57165 -1.04489 -19.66743 -5.45493 -4.40533 26.35181 94.35451 7.71855 1.67388 -23.3868 7.18933 1.22467 31.96692 -104.26309 15.29915 -1.96129 28.85861 -3.1699 -11.49325 -20.28392 -6.40382 -3.43028 -3.88466 34.69048 6.55028 6.67435 -24.43653 -6.60779 2.27858 3.34727
-0.001 0.00023 -1e-05 -172.1063 -29.33031 1.49589 43.96533 -0.93781 -6.53821 -10.17831 3.55466 -1.04585 -19.69269 -5.45538 -4.39753 26.42722 94.30845 7.69507 1.68782 -23.42981 7.302 1.01708 32.09434 -104.3113 15.31889 -1.96519 28.8478 -3.17515 -11.50277 -20.28316 -6.40307 -3.42688 -3.88348 34.6767 6.53819 6.62013 -24.43751 -6.60944 2.28407 3.35042
